# xmcd
#
# Track frame offsets:
#  180
#  15794
#  31687
#  49387
#  64493
#  79484
#  93946
#  108508
#  126395
#  141719
#
# Disc length: 2042 seconds
#
# Revision: 0
# Processed by: cddbd v1.5.1PL0 Copyright (c) Steve Scherf et al.
# Submitted via: Collectorz.com Music Collector 6.9
#
DISCID=8c07f80a
DTITLE=The Boys Band - Boys Band
DYEAR=1982
DGENRE=Classic Rock
TTITLE0=Don't Stop Me Baby(I'm On Fire)
TTITLE1=Think About It
TTITLE2=Taking It All In Stride
TTITLE3=What's Forever For?
TTITLE4=Runner
TTITLE5=Is It Better Than Me
TTITLE6=On A Night Like This
TTITLE7=We're Lovers
TTITLE8=Love Will Find A Heart
TTITLE9=The Best Is Yet To Come
EXTD=
EXTT0=
EXTT1=
EXTT2=
EXTT3=
EXTT4=
EXTT5=
EXTT6=
EXTT7=
EXTT8=
EXTT9=
PLAYORDER=
